<svg xmlns="http://www.w3.org/2000/svg" version="1.1" xmlns:xlink="http://www.w3.org/1999/xlink" xmlns:svgjs="http://svgjs.dev/svgjs" width="1000" height="143" viewBox="0 0 1000 143"><g transform="matrix(1,0,0,1,-0.6060604575458228,0.12192920598558032)"><svg viewBox="0 0 396 57" data-background-color="#61777f" preserveAspectRatio="xMidYMid meet" height="143" width="1000" xmlns="http://www.w3.org/2000/svg" xmlns:xlink="http://www.w3.org/1999/xlink"><g id="tight-bounds" transform="matrix(1,0,0,1,0.24000005881180186,-0.048601152036212625)"><svg viewBox="0 0 395.52 57.09720230407241" height="57.09720230407241" width="395.52"><g><svg viewBox="0 0 475.96794579332084 68.71065455909944" height="57.09720230407241" width="395.52"><g transform="matrix(1,0,0,1,0,9.496190318949346)"><svg viewBox="0 0 395.52 49.71827392120075" height="49.71827392120075" width="395.52"><g><svg viewBox="0 0 395.52 49.71827392120075" height="49.71827392120075" width="395.52"><g><svg viewBox="0 0 395.52 49.71827392120075" height="49.71827392120075" width="395.52"><g transform="matrix(1,0,0,1,0,0)"><svg width="395.52" viewBox="1.9000000953674316 -32.70000076293945 266.4800109863281 33.5" height="49.71827392120075" data-palette-color="#ffffff"><path d="M25.7 0.8Q22.45 0.8 20.25-3.85L20.25-3.85 15.9-12.65 12.35-12.65 12.25-7Q12.25-5.25 12.5-4.48 12.75-3.7 13.45-3.45 14.15-3.2 15.85-3.15L15.85-3.15 16-2.85 15.55 0.2Q14.65 0.15 12.4 0.1 10.15 0.05 8.25 0.05L8.25 0.05Q6.4 0.05 4.45 0.15 2.5 0.25 1.9 0.3L1.9 0.3 2.35-3Q4.45-3.25 5.18-4.1 5.9-4.95 5.9-7.1L5.9-7.1 5.9-26.45Q5.9-27.9 5.58-28.4 5.25-28.9 4.3-28.9L4.3-28.9Q3.75-28.9 3.25-28.85 2.75-28.8 2.6-28.8L2.6-28.8 2.3-29.2 2.75-32.2Q3.45-32.2 5.33-32.15 7.2-32.1 9-32.1L9-32.1Q11-32.1 13.33-32.18 15.65-32.25 16.55-32.3L16.55-32.3Q22.25-32.3 25.28-30.1 28.3-27.9 28.3-23.75L28.3-23.75Q28.3-20.8 26.55-18.35 24.8-15.9 21.55-14.25L21.55-14.25 25.95-7.1Q27.35-4.8 28.65-3.8 29.95-2.8 31.55-2.8L31.55-2.8 31.9-2.35 31.55 0.25 25.7 0.8ZM17-16.5Q18.65-17.2 20-18.57 21.35-19.95 21.35-22.85L21.35-22.85Q21.35-25.6 19.5-26.95 17.65-28.3 13.8-28.3L13.8-28.3Q13.3-28.3 13.13-28.1 12.95-27.9 12.9-27.2L12.9-27.2Q12.6-22.05 12.5-17L12.5-17 17-16.5ZM48.85 0.4L48.6 0 48.85-2.95Q50.55-3.1 51.32-3.28 52.1-3.45 52.4-3.78 52.7-4.1 52.7-4.75L52.7-4.75Q52.7-5.35 52.45-6.5L52.45-6.5 51.4-10.35Q48.8-10.45 46.8-10.45L46.8-10.45Q45.9-10.45 43.05-10.2L43.05-10.2 42-10.1 40.75-6.25Q40.45-5.15 40.45-4.7L40.45-4.7Q40.45-3.8 40.97-3.45 41.5-3.1 42.8-3.1L42.8-3.1 44.95-3.1 45.2-2.75 44.85 0.3Q44.15 0.25 41.85 0.13 39.55 0 37.55 0L37.55 0Q35.45 0 33.77 0.05 32.1 0.1 31.55 0.15L31.55 0.15 31.9-3.1Q33.05-3.3 33.8-4.05 34.55-4.8 35.2-6.5L35.2-6.5 44.15-31.85 51.8-32.65 52.35-32.4Q53.1-29.55 55.47-20.73 57.85-11.9 59.55-6.55L59.55-6.55Q60.1-4.75 60.95-4 61.8-3.25 63.5-3.1L63.5-3.1 63.7-2.75 63.35 0.15Q62.7 0.1 60.9 0.05 59.1 0 57.25 0L57.25 0Q54.6 0 52.07 0.18 49.55 0.35 48.85 0.4L48.85 0.4ZM43.2-14.3L46.8-14.3Q47.35-14.3 50.5-14.45L50.5-14.45 47.55-25.6 46.9-25.6 43.2-14.3ZM78.95 0.6Q74.4 0.6 71.05-1.3 67.7-3.2 65.9-6.75 64.1-10.3 64.1-15.15L64.1-15.15Q64.1-20.45 66.25-24.4 68.4-28.35 72.37-30.53 76.35-32.7 81.6-32.7L81.6-32.7Q83.45-32.7 85.57-32.43 87.7-32.15 89.2-31.85 90.7-31.55 91.1-31.45L91.1-31.45 91.4-30.8Q91.3-30.45 91.05-29.2 90.8-27.95 90.5-25.85 90.2-23.75 90.05-21.4L90.05-21.4 85.3-21.1Q85.3-21.3 85.35-22.03 85.4-22.75 85.4-23.7L85.4-23.7Q85.4-25.9 84.05-26.93 82.7-27.95 79.8-27.95L79.8-27.95Q75.85-27.95 73.77-25.15 71.7-22.35 71.7-16.9L71.7-16.9Q71.7-10.75 73.92-7.35 76.15-3.95 80.15-3.95L80.15-3.95Q82.9-3.95 84.45-5.63 86-7.3 86.6-10.95L86.6-10.95 91.4-11.25Q91.25-10.4 90.87-7.5 90.5-4.6 90.4-2L90.4-2 89.9-1.4Q89.9-1.35 88.22-0.83 86.55-0.3 84.12 0.15 81.7 0.6 78.95 0.6L78.95 0.6ZM120.94-9.9L121.29-9.45Q120.49-5.55 119.94-0.2L119.94-0.2 119.44 0.35Q109.89 0 103.89 0L103.89 0Q99.69 0 95.34 0.5L95.34 0.5 95.69-2.85Q97.79-3.15 98.54-4.05 99.29-4.95 99.29-7.15L99.29-7.15 99.34-26.2Q99.34-27.85 99.04-28.38 98.74-28.9 97.74-28.9L97.74-28.9Q97.09-28.9 96.19-28.8L96.19-28.8 95.89-29.25 96.29-32.25 97.29-32.25Q100.84-32.1 105.34-32.1L105.34-32.1Q116.49-32.1 120.54-32.7L120.54-32.7 120.94-32.15Q120.54-30.3 120.22-27.75 119.89-25.2 119.79-23.1L119.79-23.1 115.34-22.8 115.44-24.8Q115.44-26.3 115.02-26.93 114.59-27.55 113.32-27.78 112.04-28 109.04-28L109.04-28Q107.74-28 107.24-27.9 106.74-27.8 106.57-27.45 106.39-27.1 106.34-26.3L106.34-26.3 105.99-18.45 110.69-18.4Q111.74-18.4 113.32-18.53 114.89-18.65 116.49-18.85L116.49-18.85 116.89-18.4 116.19-14.15Q115.54-14.15 115.19-14.2L115.19-14.2Q111.69-14.3 109.64-14.3L109.64-14.3Q108.09-14.3 105.79-14L105.79-14 105.69-6.85Q105.69-5.45 105.92-4.85 106.14-4.25 106.77-4.05 107.39-3.85 108.94-3.85L108.94-3.85Q112.24-3.85 113.72-4.23 115.19-4.6 115.84-5.75 116.49-6.9 116.84-9.55L116.84-9.55 120.94-9.9ZM142.94 0.6Q140.64 0.6 138.69 0.18 136.74-0.25 135.46-0.75 134.19-1.25 134.19-1.3L134.19-1.3 133.79-2Q133.84-2.35 134.01-3.53 134.19-4.7 134.39-6.68 134.59-8.65 134.59-10.5L134.59-10.5 138.69-10.8Q138.69-8 139.19-6.5 139.69-5 140.86-4.38 142.04-3.75 144.24-3.75L144.24-3.75Q146.64-3.75 148.09-4.8 149.54-5.85 149.54-7.7L149.54-7.7Q149.54-9.35 148.01-10.5 146.49-11.65 143.29-13.2L143.29-13.2Q143.09-13.3 142.14-13.75L142.14-13.75Q138.39-15.55 136.29-17.55 134.19-19.55 134.19-22.75L134.19-22.75Q134.19-25.6 135.89-27.88 137.59-30.15 140.61-31.43 143.64-32.7 147.49-32.7L147.49-32.7Q149.69-32.7 151.56-32.4 153.44-32.1 154.56-31.78 155.69-31.45 155.99-31.35L155.99-31.35 156.34-30.7Q156.29-30.4 156.04-29.18 155.79-27.95 155.54-26.05 155.29-24.15 155.14-22.15L155.14-22.15 151.44-21.85 150.99-22.15Q150.99-22.3 151.04-22.78 151.09-23.25 151.09-23.95L151.09-23.95Q151.09-26.2 149.96-27.15 148.84-28.1 146.19-28.1L146.19-28.1Q144.04-28.1 142.66-27.08 141.29-26.05 141.29-24.45L141.29-24.45Q141.29-23.25 142.16-22.28 143.04-21.3 144.26-20.6 145.49-19.9 147.84-18.75L147.84-18.75Q150.64-17.4 152.46-16.3 154.29-15.2 155.54-13.5 156.79-11.8 156.79-9.45L156.79-9.45Q156.79-6.45 155.06-4.17 153.34-1.9 150.21-0.65 147.09 0.6 142.94 0.6L142.94 0.6ZM164.33 0.3L164.73-2.95Q167.03-3.15 168.03-3.55 169.03-3.95 169.38-4.95 169.73-5.95 169.73-8.25L169.73-8.25 169.73-28.3Q166.83-28.2 165.66-27.8 164.48-27.4 164.03-26.18 163.58-24.95 163.23-21.75L163.23-21.75 159.13-21.45Q159.48-25.6 159.73-32.1L159.73-32.1 160.28-32.65 165.23-32.1 180.83-32.1 185.88-32.65 186.44-32.1Q186.53-26.1 186.94-21.75L186.94-21.75 182.83-21.45Q182.44-24.85 182.01-26.1 181.58-27.35 180.51-27.78 179.44-28.2 176.69-28.3L176.69-28.3Q176.44-24.6 176.26-18.25 176.08-11.9 176.08-6.7L176.08-6.7Q176.08-4.85 176.73-4.05 177.38-3.25 178.83-3.25L178.83-3.25Q180.08-3.25 181.48-3.4L181.48-3.4 181.69-3.15 181.23 0.2Q175.94 0 172.63 0L172.63 0Q170.03 0 164.33 0.3L164.33 0.3ZM202.38 0.4L202.13 0 202.38-2.95Q204.08-3.1 204.86-3.28 205.63-3.45 205.93-3.78 206.23-4.1 206.23-4.75L206.23-4.75Q206.23-5.35 205.98-6.5L205.98-6.5 204.93-10.35Q202.33-10.45 200.33-10.45L200.33-10.45Q199.43-10.45 196.58-10.2L196.58-10.2 195.53-10.1 194.28-6.25Q193.98-5.15 193.98-4.7L193.98-4.7Q193.98-3.8 194.51-3.45 195.03-3.1 196.33-3.1L196.33-3.1 198.48-3.1 198.73-2.75 198.38 0.3Q197.68 0.25 195.38 0.13 193.08 0 191.08 0L191.08 0Q188.98 0 187.31 0.05 185.63 0.1 185.08 0.15L185.08 0.15 185.43-3.1Q186.58-3.3 187.33-4.05 188.08-4.8 188.73-6.5L188.73-6.5 197.68-31.85 205.33-32.65 205.88-32.4Q206.63-29.55 209.01-20.73 211.38-11.9 213.08-6.55L213.08-6.55Q213.63-4.75 214.48-4 215.33-3.25 217.03-3.1L217.03-3.1 217.23-2.75 216.88 0.15Q216.23 0.1 214.43 0.05 212.63 0 210.78 0L210.78 0Q208.13 0 205.61 0.18 203.08 0.35 202.38 0.4L202.38 0.4ZM196.73-14.3L200.33-14.3Q200.88-14.3 204.03-14.45L204.03-14.45 201.08-25.6 200.43-25.6 196.73-14.3ZM220.63 0.3L221.03-2.95Q223.33-3.15 224.33-3.55 225.33-3.95 225.68-4.95 226.03-5.95 226.03-8.25L226.03-8.25 226.03-28.3Q223.13-28.2 221.95-27.8 220.78-27.4 220.33-26.18 219.88-24.95 219.53-21.75L219.53-21.75 215.43-21.45Q215.78-25.6 216.03-32.1L216.03-32.1 216.58-32.65 221.53-32.1 237.13-32.1 242.18-32.65 242.73-32.1Q242.83-26.1 243.23-21.75L243.23-21.75 239.13-21.45Q238.73-24.85 238.3-26.1 237.88-27.35 236.8-27.78 235.73-28.2 232.98-28.3L232.98-28.3Q232.73-24.6 232.55-18.25 232.38-11.9 232.38-6.7L232.38-6.7Q232.38-4.85 233.03-4.05 233.68-3.25 235.13-3.25L235.13-3.25Q236.38-3.25 237.78-3.4L237.78-3.4 237.98-3.15 237.53 0.2Q232.23 0 228.93 0L228.93 0Q226.33 0 220.63 0.3L220.63 0.3ZM254.53 0.6Q252.23 0.6 250.28 0.18 248.33-0.25 247.05-0.75 245.78-1.25 245.78-1.3L245.78-1.3 245.38-2Q245.43-2.35 245.6-3.53 245.78-4.7 245.98-6.68 246.18-8.65 246.18-10.5L246.18-10.5 250.28-10.8Q250.28-8 250.78-6.5 251.28-5 252.45-4.38 253.63-3.75 255.83-3.75L255.83-3.75Q258.23-3.75 259.68-4.8 261.13-5.85 261.13-7.7L261.13-7.7Q261.13-9.35 259.6-10.5 258.08-11.65 254.88-13.2L254.88-13.2Q254.68-13.3 253.73-13.75L253.73-13.75Q249.98-15.55 247.88-17.55 245.78-19.55 245.78-22.75L245.78-22.75Q245.78-25.6 247.48-27.88 249.18-30.15 252.2-31.43 255.23-32.7 259.08-32.7L259.08-32.7Q261.28-32.7 263.15-32.4 265.03-32.1 266.15-31.78 267.28-31.45 267.58-31.35L267.58-31.35 267.93-30.7Q267.88-30.4 267.63-29.18 267.38-27.95 267.13-26.05 266.88-24.15 266.73-22.15L266.73-22.15 263.03-21.85 262.58-22.15Q262.58-22.3 262.63-22.78 262.68-23.25 262.68-23.95L262.68-23.95Q262.68-26.2 261.55-27.15 260.43-28.1 257.78-28.1L257.78-28.1Q255.63-28.1 254.25-27.08 252.88-26.05 252.88-24.45L252.88-24.45Q252.88-23.25 253.75-22.28 254.63-21.3 255.85-20.6 257.08-19.9 259.43-18.75L259.43-18.75Q262.23-17.4 264.05-16.3 265.88-15.2 267.13-13.5 268.38-11.8 268.38-9.45L268.38-9.45Q268.38-6.45 266.65-4.17 264.93-1.9 261.8-0.65 258.68 0.6 254.53 0.6L254.53 0.6Z" opacity="1" transform="matrix(1,0,0,1,0,0)" fill="#ffffff" class="undefined-text-0" data-fill-palette-color="primary" id="text-0"></path></svg></g></svg></g></svg></g></svg></g><g transform="matrix(1,0,0,1,407.2572912342214,0)"><svg viewBox="0 0 68.71065455909944 68.71065455909944" height="68.71065455909944" width="68.71065455909944"><g data-palette-color="#ffffff"><rect width="18.780912246153846" height="68.71065455909944" fill="#ffffff" stroke="transparent" data-fill-palette-color="accent" x="0" fill-opacity="1"></rect><rect width="18.780912246153846" height="68.71065455909944" fill="#ffffff" stroke="transparent" data-fill-palette-color="accent" x="22.90355151969981" fill-opacity="0.75"></rect><rect width="18.780912246153846" height="68.71065455909944" fill="#ffffff" stroke="transparent" data-fill-palette-color="accent" x="45.80710303939962" fill-opacity="0.5"></rect></g></svg></g></svg></g><defs></defs></svg><rect width="395.52" height="57.09720230407241" fill="none" stroke="none" visibility="hidden"></rect></g></svg></g></svg>